<svg width="386" height="448" viewBox="0 0 386 448" fill="none" xmlns="http://www.w3.org/2000/svg">
<path d="M257.161 352V368C257.161 384.974 250.418 401.252 238.416 413.255C226.414 425.257 210.135 432 193.161 432C176.187 432 159.909 425.257 147.906 413.255C135.904 401.252 129.161 384.974 129.161 368V352M364.841 319.43C339.161 288 321.031 272 321.031 185.35C321.031 106 280.511 77.73 247.161 64C242.731 62.18 238.561 58 237.211 53.45C231.361 33.54 214.961 16 193.161 16C171.361 16 154.951 33.55 149.161 53.47C147.811 58.07 143.641 62.18 139.211 64C105.821 77.75 65.3412 105.92 65.3412 185.35C65.2912 272 47.1612 288 21.4812 319.43C10.8412 332.45 20.1612 352 38.7712 352H347.651C366.161 352 375.421 332.39 364.841 319.43Z" stroke="black" stroke-width="32" stroke-linecap="round" stroke-linejoin="round"/>
</svg>
