<svg width="386" height="448" viewBox="0 0 386 448" fill="none" xmlns="http://www.w3.org/2000/svg">
<path d="M377.08 309.31C375.42 307.31 373.79 305.31 372.19 303.38C350.19 276.77 336.88 260.71 336.88 185.38C336.88 146.38 327.55 114.38 309.16 90.38C295.6 72.65 277.27 59.2 253.11 49.26C252.799 49.0871 252.521 48.8602 252.29 48.59C243.6 19.49 219.82 0 193 0C166.18 0 142.41 19.49 133.72 48.56C133.488 48.8203 133.214 49.04 132.91 49.21C76.5299 72.42 49.1299 116.95 49.1299 185.35C49.1299 260.71 35.8399 276.77 13.8199 303.35C12.2199 305.28 10.5899 307.24 8.92988 309.28C4.64189 314.451 1.9251 320.743 1.10102 327.41C0.276944 334.077 1.38008 340.84 4.27988 346.9C10.4499 359.9 23.5999 367.97 38.6099 367.97H347.5C362.44 367.97 375.5 359.91 381.69 346.97C384.602 340.909 385.716 334.14 384.899 327.465C384.082 320.79 381.368 314.49 377.08 309.31ZM193 448C207.45 447.988 221.628 444.066 234.03 436.648C246.431 429.231 256.594 418.596 263.44 405.87C263.762 405.26 263.922 404.577 263.902 403.888C263.883 403.198 263.686 402.525 263.329 401.934C262.973 401.344 262.47 400.855 261.869 400.516C261.268 400.177 260.59 399.999 259.9 400H126.12C125.429 399.998 124.75 400.174 124.147 400.512C123.545 400.851 123.041 401.339 122.683 401.93C122.326 402.521 122.127 403.195 122.107 403.885C122.088 404.576 122.247 405.259 122.57 405.87C129.415 418.594 139.576 429.229 151.976 436.646C164.376 444.063 178.551 447.987 193 448Z" fill="black"/>
</svg>
